<?xml version="1.0" encoding="UTF-8"?>
<!DOCTYPE svg PUBLIC "-//W3C//DTD SVG 1.1//EN" "http://www.w3.org/Graphics/SVG/1.1/DTD/svg11.dtd">
<!-- Creator: CorelDRAW 2021 (64-Bit) -->
<svg xmlns="http://www.w3.org/2000/svg" xml:space="preserve" width="12.4447in" height="7.95063in" version="1.1" style="shape-rendering:geometricPrecision; text-rendering:geometricPrecision; image-rendering:optimizeQuality; fill-rule:evenodd; clip-rule:evenodd"
viewBox="0 0 12444.73 7950.63"
 xmlns:xlink="http://www.w3.org/1999/xlink"
 xmlns:xodm="http://www.corel.com/coreldraw/odm/2003">
 <defs>
  <style type="text/css">
   <![CDATA[
    .str1 {stroke:#FEFEFE;stroke-width:58.05;stroke-miterlimit:2.61313;stroke-opacity:0.101961}
    .str0 {stroke:#EDF1F7;stroke-width:125;stroke-miterlimit:2.61313}
    .fil2 {fill:none}
    .fil1 {fill:none}
    .fil0 {fill:url(#id1);fill-rule:nonzero}
   ]]>
  </style>
   <clipPath id="id0">
    <path d="M-0.97 1.35l12444.73 0 0 7950.63 -12444.73 0 0 -7950.63z"/>
   </clipPath>
  <linearGradient id="id1" gradientUnits="userSpaceOnUse" x1="50.43" y1="249.72" x2="12469.46" y2="7743.97">
   <stop offset="0" style="stop-opacity:1; stop-color:#206ECF"/>
   <stop offset="1" style="stop-opacity:1; stop-color:#71B0FF"/>
  </linearGradient>
 </defs>
 <g id="Layer_x0020_1">
  <metadata id="CorelCorpID_0Corel-Layer"/>
  <g>
  </g>
  <g style="clip-path:url(#id0)">
   <g>
    <polygon class="fil0 str0" points="50.42,1.34 -0.97,1.34 -0.97,52.73 -0.97,7889.57 -0.97,7951.98 60.28,7940.02 12402.23,5529.01 12443.76,5520.89 12443.76,5478.57 12443.76,52.73 12443.76,1.34 12392.37,1.34 "/>
    <g id="_1649519265152">
     <path class="fil1 str1" d="M3334.94 2179.62c22.47,-75 77.62,-140.02 165.4,-194.57 87.94,-54.63 207.48,-97.98 356.01,-129.61 297.02,-63.25 705.48,-78.67 1197.04,-47.39 982.76,62.52 2292.87,311.35 3697.11,732.01 1404.14,420.66 2635.28,933.1 3490.57,1421.19 427.83,244.13 760.53,481.6 973.87,697.72 106.63,108.08 182.67,210.02 226.06,304.01 43.39,93.81 53.66,178.46 31.21,253.46 -22.45,75 -77.63,140.02 -165.39,194.56 -87.92,54.63 -207.49,98 -355.98,129.61 -297.07,63.25 -705.5,78.67 -1197.04,47.4 -982.78,-62.52 -2292.93,-311.37 -3697.1,-732.02 -1404.2,-420.65 -2635.35,-933.09 -3490.62,-1421.19 -427.8,-244.13 -760.5,-481.58 -973.83,-697.72 -106.67,-108.07 -182.69,-210.01 -226.11,-303.99 -43.33,-93.83 -53.66,-178.46 -31.19,-253.46z"/>
     <path class="fil1 str1" d="M3469.77 1704.72c28.91,-72.76 89.52,-132.72 181.72,-179.41 92.37,-46.77 215.24,-79.54 365.95,-98.1 301.4,-37.12 709.66,-16.89 1196.62,57.11 973.57,147.93 2257.01,510.02 3619.18,1051.46 1362.2,541.44 2544.02,1159.23 3353.48,1720.01 404.93,280.5 715.62,546.04 909.33,779.94 96.82,116.96 163.72,225.13 198.73,322.54 35.02,97.24 37.91,182.46 8.98,255.22 -28.92,72.76 -89.51,132.73 -181.68,179.41 -92.41,46.77 -215.26,79.54 -365.96,98.1 -301.41,37.12 -709.69,16.89 -1196.66,-57.11 -973.57,-147.94 -2256.99,-510.01 -3619.19,-1051.45 -1362.2,-541.44 -2544,-1159.24 -3353.48,-1720.01 -404.89,-280.49 -715.63,-546.04 -909.31,-779.94 -96.85,-116.96 -163.7,-225.15 -198.76,-322.56 -35,-97.24 -37.9,-182.45 -8.98,-255.2z"/>
     <path class="fil1 str1" d="M3642.02 1244.66c35.15,-69.96 100.76,-124.42 196.68,-162.89 96.08,-38.54 221.35,-60.47 373.11,-65.83 303.49,-10.7 708.42,45.04 1187.08,161.19 956.98,232.22 2203.98,704.78 3513.82,1362.88 1309.83,658.1 2433.27,1376.54 3190.76,2005.75 378.96,314.7 665.38,606.33 837.93,856.22 86.23,124.94 143.39,238.55 169.88,338.64 26.34,99.92 21.85,185.06 -13.32,255.02 -35.16,69.96 -100.77,124.42 -196.67,162.86 -96.06,38.59 -221.34,60.51 -373.11,65.84 -303.46,10.73 -708.39,-44.99 -1187.07,-161.17 -956.98,-232.22 -2204.02,-704.78 -3513.81,-1362.88 -1309.83,-658.09 -2433.28,-1376.54 -3190.81,-2005.74 -378.9,-314.71 -665.32,-606.33 -837.87,-856.23 -86.28,-124.95 -143.46,-238.54 -169.89,-338.65 -26.39,-99.91 -21.85,-185.06 13.3,-255.01z"/>
     <path class="fil1 str1" d="M3850.26 802.67c41.12,-66.63 111.22,-115.16 210.12,-145.13 99.08,-30.01 225.78,-40.95 377.43,-33.06 303.26,15.79 701.8,106.61 1168.52,264.03 933.09,314.75 2134.17,894.2 3381.65,1663.95 1247.5,769.76 2304.03,1583.38 3003.82,2276.21 350.05,346.54 609.98,662.02 760.07,925.99 75.05,132.01 122.16,250.15 139.75,352.17 17.58,101.84 5.63,186.25 -35.47,252.92 -41.1,66.6 -111.2,115.17 -210.15,145.07 -99.02,30.06 -225.75,40.95 -377.37,33.11 -303.32,-15.83 -701.84,-106.64 -1168.57,-264.04 -933.07,-314.77 -2134.15,-894.22 -3381.62,-1663.98 -1247.49,-769.75 -2304.05,-1583.37 -3003.85,-2276.2 -350.03,-346.52 -609.94,-662.01 -760.06,-925.99 -75.06,-131.99 -122.12,-250.15 -139.72,-352.16 -17.58,-101.83 -5.64,-186.26 35.47,-252.89z"/>
     <path class="fil1 str1" d="M4092.75 381.84c46.76,-62.78 120.83,-105.03 221.97,-126.25 101.32,-21.27 228.49,-21.12 378.87,-0.04 300.73,42.15 689.84,167.36 1141.05,364.87 902.12,394.87 2048.11,1076.79 3223.73,1952.35 1175.65,875.55 2157.28,1778.17 2794.06,2529.34 318.53,375.72 549.92,712.66 676.49,988.71 63.25,138 99.87,259.86 108.46,363 8.68,102.98 -10.58,186.02 -57.39,248.81 -46.74,62.8 -120.79,105.04 -221.95,126.27 -101.31,21.31 -228.49,21.16 -378.89,0.08 -300.73,-42.17 -689.82,-167.37 -1141.02,-364.89 -902.09,-394.88 -2048.14,-1076.8 -3223.77,-1952.35 -1175.65,-875.56 -2157.28,-1778.17 -2794.04,-2529.35 -318.49,-375.72 -549.92,-712.65 -676.46,-988.71 -63.28,-138.04 -99.85,-259.83 -108.49,-363 -8.64,-102.99 10.61,-186.05 57.37,-248.85z"/>
     <path class="fil1 str1" d="M4367.56 -14.94c52.07,-58.48 129.52,-94.1 232.14,-106.44 102.79,-12.35 229.46,-1.12 377.43,32.98 295.92,68.21 672.63,226.86 1104.91,462.94 864.27,472 1946.46,1251.2 3041.34,2225.89 1094.89,974.68 1994.1,1959.41 2562.98,2763.23 284.51,402.06 485.68,757.84 587.67,1043.87 51,143.09 76.87,267.61 76.5,371.13 -0.38,103.36 -26.8,184.43 -78.86,242.88 -52.06,58.45 -129.54,94.07 -232.15,106.4 -102.75,12.41 -229.48,1.14 -377.44,-32.96 -295.93,-68.2 -672.62,-226.89 -1104.94,-462.93 -864.19,-471.98 -1946.42,-1251.21 -3041.3,-2225.89 -1094.86,-974.69 -1994.09,-1959.43 -2562.96,-2763.25 -284.53,-402.05 -485.71,-757.87 -587.71,-1043.9 -51.01,-143.03 -76.82,-267.55 -76.45,-371.07 0.37,-103.35 26.79,-184.42 78.84,-242.89z"/>
     <path class="fil1 str1" d="M4672.43 -384.94c56.95,-53.72 137.22,-82.46 240.52,-85.81 103.47,-3.34 228.69,18.89 373.12,65.76 288.85,93.74 650.3,284.61 1060.37,557.47 819.83,545.53 1830,1416.08 2835.77,2482.48 1005.69,1066.4 1815.7,2125.76 2312.34,2976.1 248.43,425.32 417.86,797.31 494.51,1091.19 38.36,146.9 53.2,273.17 43.84,376.31 -9.37,102.91 -42.78,181.37 -99.71,235.11 -57.01,53.66 -137.23,82.43 -240.52,85.78 -103.52,3.35 -228.72,-18.87 -373.19,-65.76 -288.85,-93.76 -650.23,-284.58 -1060.34,-557.46 -819.81,-545.57 -1830,-1416.11 -2835.75,-2482.5 -1005.75,-1066.4 -1815.73,-2125.76 -2312.37,-2976.1 -248.41,-425.32 -417.81,-797.32 -494.5,-1091.15 -38.34,-146.93 -53.21,-273.23 -43.81,-376.33 9.38,-102.92 42.76,-181.38 99.73,-235.09z"/>
     <path class="fil1 str1" d="M5004.95 -725.63c61.42,-48.55 143.9,-70.19 247.09,-64.51 103.37,5.68 226.17,38.74 365.98,98.02 279.57,118.56 623.02,340.2 1007.73,647.77 769.18,614.9 1699.63,1570.19 2608.61,2720.19 908.95,1150 1623.58,2275.93 2044.19,3166.31 210.37,445.36 346.77,830.72 397.54,1130.08 25.34,149.71 29.15,276.82 10.81,378.74 -18.27,101.69 -58.38,176.96 -119.81,225.52 -61.41,48.56 -143.93,70.18 -247.06,64.47 -103.37,-5.63 -226.21,-38.75 -366.03,-98.04 -279.57,-118.51 -622.99,-340.15 -1007.75,-647.73 -769.12,-614.92 -1699.59,-1570.2 -2608.56,-2720.2 -908.98,-1150 -1623.56,-2275.91 -2044.2,-3166.31 -210.39,-445.35 -346.73,-830.7 -397.51,-1130.1 -25.4,-149.71 -29.2,-276.83 -10.86,-378.71 18.31,-101.72 58.41,-176.96 119.83,-225.51z"/>
     <path class="fil1 str1" d="M5362.44 -1034.75c65.42,-43.01 149.46,-57.37 251.77,-42.73 102.48,14.67 221.93,58.31 356.04,129.55 268.19,142.47 591,393.22 947.45,733.13 712.65,679.59 1556.3,1712.34 2361.57,2937.2 805.28,1224.84 1419.06,2408.76 1760.5,3332.43 170.72,462.02 273.02,857.73 297.45,1160.43 12.26,151.39 4.95,278.35 -22.14,378.21 -27.09,99.78 -73.61,171.25 -139.06,214.26 -65.38,43 -149.48,57.31 -251.78,42.7 -102.45,-14.69 -221.87,-58.31 -355.98,-129.55 -268.22,-142.48 -591.02,-393.2 -947.46,-733.13 -712.65,-679.62 -1556.33,-1712.36 -2361.62,-2937.2 -805.28,-1224.85 -1419.01,-2408.77 -1760.45,-3332.43 -170.78,-461.99 -273.02,-857.75 -297.51,-1160.45 -12.24,-151.35 -4.95,-278.32 22.19,-378.22 27.12,-99.72 73.61,-171.2 139.03,-214.2z"/>
     <path class="fil1 str1" d="M5742.05 -1310.22c68.92,-37.14 153.89,-44.13 254.53,-20.62 100.81,23.55 216.01,77.43 343.38,160.09 254.75,165.3 554.48,443.22 879.95,812.92 650.72,739.13 1401.15,1841.47 2096.65,3131.84 695.45,1290.37 1203.66,2523.27 1463.28,3473.17 129.85,475.1 197.21,878.27 195.24,1181.96 -1,151.85 -19.34,277.74 -55.11,374.86 -35.69,96.97 -88.21,164.1 -157.09,201.24 -68.96,37.15 -153.9,44.15 -254.6,20.63 -100.77,-23.52 -216.01,-77.41 -343.35,-160.07 -254.75,-165.31 -554.48,-443.21 -879.95,-812.89 -650.71,-739.14 -1401.15,-1841.49 -2096.62,-3131.87 -695.47,-1290.37 -1203.68,-2523.27 -1463.31,-3473.18 -129.87,-475.12 -197.22,-878.29 -195.24,-1181.96 0.99,-151.85 19.32,-277.69 55.07,-374.84 35.7,-96.99 88.25,-164.13 157.18,-201.28z"/>
     <path class="fil1 str1" d="M10829.39 -1622.85c66.67,41.12 115.16,111.21 145.15,210.13 30.07,99.08 40.95,225.78 33.03,377.43 -15.76,303.26 -106.56,701.81 -263.96,1168.52 -314.8,933.1 -894.26,2134.16 -1663.99,3381.65 -769.74,1247.48 -1583.37,2304.05 -2276.19,3003.89 -346.54,349.96 -662.02,609.89 -926,759.99 -131.99,75.13 -250.14,122.17 -352.17,139.75 -101.83,17.58 -186.26,5.63 -252.89,-35.47 -66.63,-41.1 -115.16,-111.2 -145.13,-210.15 -30.01,-99.02 -40.95,-225.75 -33.06,-377.37 15.79,-303.31 106.61,-701.84 264.04,-1168.53 314.74,-933.11 894.19,-2134.17 1663.94,-3381.65 769.76,-1247.48 1583.38,-2304.05 2276.2,-3003.85 346.54,-350.03 662.04,-609.94 926,-760.06 131.98,-75.07 250.19,-122.11 352.18,-139.73 101.83,-17.58 186.24,-5.64 252.85,35.47z"/>
     <path class="fil1 str1" d="M11194.51 -1402.5c62.79,46.76 105.04,120.82 126.26,221.97 21.32,101.32 21.17,228.49 0.08,378.87 -42.17,300.74 -167.37,689.85 -364.89,1141.07 -394.87,902.1 -1076.78,2048.11 -1952.31,3223.76 -875.59,1175.64 -1778.2,2157.28 -2529.39,2794 -375.72,318.53 -712.66,549.92 -988.71,676.49 -138.04,63.25 -259.84,99.87 -363,108.47 -102.98,8.67 -186.05,-10.58 -248.84,-57.31 -62.8,-46.81 -105.03,-120.87 -126.26,-222.02 -21.27,-101.31 -21.12,-228.5 -0.04,-378.82 42.15,-300.8 167.36,-689.88 364.87,-1141.09 394.88,-902.11 1076.8,-2048.11 1952.35,-3223.75 875.56,-1175.65 1778.19,-2157.29 2529.35,-2794.04 375.69,-318.5 712.65,-549.93 988.72,-676.47 137.99,-63.27 259.85,-99.85 362.98,-108.49 102.98,-8.64 186.02,10.61 248.82,57.38z"/>
     <path class="fil1 str1" d="M11535.57 -1149.85c58.46,52.05 94.07,129.52 106.4,232.13 12.34,102.79 1.14,229.46 -32.96,377.43 -68.19,295.92 -226.89,672.63 -462.93,1104.92 -472.05,864.26 -1251.22,1946.46 -2225.93,3041.33 -974.67,1094.86 -1959.4,1994.09 -2763.21,2562.97 -402.06,284.52 -757.87,485.68 -1043.91,587.67 -143.03,51.08 -267.54,76.87 -371.07,76.5 -103.35,-0.38 -184.41,-26.79 -242.89,-78.85 -58.48,-52.07 -94.11,-129.55 -106.44,-232.15 -12.35,-102.76 -1.12,-229.48 32.98,-377.45 68.22,-295.9 226.86,-672.61 462.94,-1104.9 472,-864.27 1251.2,-1946.46 2225.89,-3041.33 974.68,-1094.86 1959.39,-1994.09 2763.22,-2562.96 402.03,-284.53 757.86,-485.71 1043.89,-587.71 143.02,-51.01 267.54,-76.83 371.13,-76.45 103.29,0.37 184.35,26.79 242.88,78.85z"/>
     <path class="fil1 str1" d="M11849.84 -867.13c53.74,56.96 82.44,137.22 85.78,240.52 3.35,103.48 -18.87,228.69 -65.76,373.12 -93.7,288.85 -284.59,650.3 -557.46,1060.36 -545.51,819.84 -1416.09,1830.02 -2482.52,2835.76 -1066.37,1005.75 -2125.72,1815.73 -2976.07,2312.37 -425.32,248.4 -797.31,417.83 -1091.15,494.48 -146.93,38.36 -273.23,53.2 -376.33,43.84 -102.93,-9.36 -181.38,-42.78 -235.1,-99.7 -53.71,-56.94 -82.45,-137.23 -85.8,-240.52 -3.34,-103.49 18.89,-228.7 65.76,-373.13 93.75,-288.85 284.61,-650.3 557.48,-1060.37 545.52,-819.83 1416.08,-1830.01 2482.48,-2835.76 1066.39,-1005.74 2125.77,-1815.73 2976.11,-2312.37 425.33,-248.4 797.29,-417.81 1091.16,-494.5 146.9,-38.34 273.17,-53.21 376.31,-43.81 102.91,9.38 181.39,42.76 235.11,99.72z"/>
     <path class="fil1 str1" d="M12134.81 -556.78c48.56,61.43 70.18,143.91 64.47,247.09 -5.63,103.37 -38.74,226.17 -98.04,365.97 -118.51,279.58 -340.15,623.03 -647.72,1007.74 -614.92,769.17 -1570.22,1699.63 -2720.22,2608.61 -1149.98,908.98 -2275.92,1623.56 -3166.31,2044.19 -445.34,210.39 -830.69,346.73 -1130.09,397.54 -149.71,25.34 -276.83,29.15 -378.72,10.81 -101.71,-18.27 -176.96,-58.38 -225.5,-119.8 -48.56,-61.42 -70.18,-143.91 -64.52,-247.09 5.69,-103.37 38.75,-226.17 98.02,-365.97 118.56,-279.58 340.21,-623.03 647.78,-1007.75 614.91,-769.17 1570.19,-1699.62 2720.19,-2608.6 1150,-908.98 2275.89,-1623.55 3166.34,-2044.2 445.34,-210.39 830.7,-346.73 1130.06,-397.5 149.71,-25.4 276.82,-29.2 378.74,-10.85 101.69,18.31 176.97,58.41 225.52,119.82z"/>
     <path class="fil1 str1" d="M12388.2 -221.46c43,65.41 57.31,149.46 42.69,251.77 -14.69,102.48 -58.3,221.93 -129.54,356.04 -142.48,268.19 -393.2,591 -733.13,947.44 -679.62,712.66 -1712.33,1556.3 -2937.2,2361.6 -1224.85,805.29 -2408.77,1419.01 -3332.43,1760.44 -461.99,170.79 -857.76,273.02 -1160.45,297.51 -151.35,12.25 -278.32,4.96 -378.22,-22.2 -99.73,-27.11 -171.2,-73.61 -214.2,-139.03 -43.01,-65.43 -57.37,-149.47 -42.74,-251.78 14.68,-102.48 58.31,-221.93 129.55,-356.03 142.48,-268.19 393.22,-591.01 733.13,-947.45 679.6,-712.66 1712.35,-1556.31 2937.2,-2361.6 1224.85,-805.29 2408.8,-1419.01 3332.44,-1760.45 462.01,-170.78 857.72,-273.01 1160.42,-297.51 151.39,-12.24 278.35,-4.96 378.21,22.2 99.78,27.1 171.25,73.61 214.26,139.02z"/>
     <path class="fil1 str1" d="M12607.86 136.01c37.14,68.91 44.15,153.89 20.63,254.54 -23.52,100.81 -77.41,216 -160.07,343.38 -165.31,254.75 -443.21,554.48 -812.89,879.95 -739.14,650.7 -1841.5,1401.15 -3131.87,2096.61 -1290.37,695.47 -2523.27,1203.68 -3473.17,1463.31 -475.12,129.86 -878.29,197.22 -1181.96,195.23 -151.85,-0.99 -277.7,-19.31 -374.84,-55.07 -96.99,-35.7 -164.13,-88.25 -201.28,-157.17 -37.15,-68.92 -44.13,-153.89 -20.62,-254.54 23.55,-100.81 77.43,-216 160.08,-343.38 165.31,-254.75 443.23,-554.48 812.93,-879.95 739.13,-650.7 1841.48,-1401.14 3131.84,-2096.61 1290.37,-695.47 2523.26,-1203.68 3473.16,-1463.31 475.18,-129.86 878.28,-197.22 1181.97,-195.23 151.84,0.99 277.73,19.31 374.86,55.07 96.97,35.7 164.1,88.25 201.24,157.17z"/>
     <path class="fil1 str1" d="M12792.13 512.56c31.06,71.89 30.6,157.15 -1.6,255.36 -32.27,98.38 -95.98,208.44 -189.44,328.13 -186.86,239.36 -489.87,513.74 -886.5,805.74 -793.03,583.81 -1956.57,1235.31 -3302.66,1815.68 -1346.07,580.37 -2618.57,979.18 -3587.49,1155.03 -484.64,87.97 -892.15,119.93 -1194.48,91.48 -151.18,-14.22 -274.95,-43.45 -368.61,-87.54 -93.5,-44.01 -155.83,-102.22 -186.82,-174.11 -31,-71.9 -30.54,-157.16 1.65,-255.37 32.24,-98.37 95.96,-208.43 189.41,-328.13 186.87,-239.37 489.85,-513.74 886.51,-805.75 793.03,-583.82 1956.58,-1235.31 3302.66,-1815.68 1346.06,-580.37 2618.61,-979.18 3587.53,-1155.04 484.61,-87.95 892.13,-119.91 1194.45,-91.48 151.16,14.22 274.92,43.46 368.62,87.54 93.54,44.02 155.8,102.22 186.78,174.12z"/>
    </g>
   </g>
  </g>
  <polygon class="fil2" points="-0.97,1.35 12443.76,1.35 12443.76,7951.98 -0.97,7951.98 "/>
 </g>
</svg>
