<?xml version="1.0" encoding="UTF-8"?>
<!DOCTYPE svg PUBLIC "-//W3C//DTD SVG 1.1//EN" "http://www.w3.org/Graphics/SVG/1.1/DTD/svg11.dtd">
<!-- Creator: CorelDRAW 2021 (64-Bit) -->
<svg xmlns="http://www.w3.org/2000/svg" xml:space="preserve" width="12.4447in" height="7.95063in" version="1.1" style="shape-rendering:geometricPrecision; text-rendering:geometricPrecision; image-rendering:optimizeQuality; fill-rule:evenodd; clip-rule:evenodd"
viewBox="0 0 12444.73 7950.63"
 xmlns:xlink="http://www.w3.org/1999/xlink"
 xmlns:xodm="http://www.corel.com/coreldraw/odm/2003">
 <defs>
  <style type="text/css">
   <![CDATA[
    .str0 {stroke:#FEFEFE;stroke-width:58.05;stroke-miterlimit:2.61313;stroke-opacity:0.101961}
    .fil2 {fill:none;fill-rule:nonzero}
    .fil1 {fill:none}
    .fil0 {fill:url(#id1);fill-rule:nonzero}
   ]]>
  </style>
   <clipPath id="id0" style="clip-rule:nonzero">
    <path d="M-0.97 1.35l12444.73 0 0 7950.63 -12444.73 0 0 -7950.63z"/>
   </clipPath>
  <linearGradient id="id1" gradientUnits="userSpaceOnUse" x1="50.42" y1="249.73" x2="12469.46" y2="7743.97">
   <stop offset="0" style="stop-opacity:1; stop-color:#206ECF"/>
   <stop offset="1" style="stop-opacity:1; stop-color:#71B0FF"/>
  </linearGradient>
 </defs>
 <g id="Layer_x0020_1">
  <metadata id="CorelCorpID_0Corel-Layer"/>
  <polygon class="fil0" points="-0.97,1.35 12443.76,1.35 12443.76,7951.98 -0.97,7951.98 "/>
  <g style="clip-path:url(#id0)">
   <g id="_1649527276656">
    <g>
     <path id="_1" class="fil1 str0" d="M3334.94 2179.62c22.47,-75 77.62,-140.02 165.41,-194.57 87.93,-54.63 207.48,-97.98 355.99,-129.61 297.02,-63.25 705.48,-78.67 1197.04,-47.4 982.76,62.53 2292.87,311.36 3697.12,732.01 1404.13,420.67 2635.28,933.1 3490.56,1421.2 427.84,244.13 760.53,481.59 973.88,697.7 106.63,108.09 182.67,210.04 226.06,304.02 43.39,93.81 53.67,178.45 31.21,253.45 -22.45,74.99 -77.64,140.02 -165.39,194.56 -87.92,54.63 -207.49,97.99 -355.99,129.61 -297.07,63.25 -705.49,78.67 -1197.04,47.4 -982.78,-62.52 -2292.91,-311.37 -3697.09,-732.02 -1404.21,-420.64 -2635.35,-933.09 -3490.63,-1421.2 -427.8,-244.13 -760.5,-481.58 -973.83,-697.71 -106.67,-108.07 -182.69,-210.02 -226.11,-304 -43.33,-93.82 -53.66,-178.46 -31.19,-253.46z"/>
     <path class="fil1 str0" d="M3469.77 1704.71c28.91,-72.75 89.52,-132.72 181.72,-179.4 92.37,-46.77 215.24,-79.54 365.94,-98.09 301.41,-37.12 709.66,-16.89 1196.63,57.1 973.57,147.94 2257.01,510.02 3619.18,1051.46 1362.2,541.44 2544.01,1159.23 3353.48,1720.01 404.93,280.5 715.62,546.04 909.33,779.94 96.81,116.96 163.72,225.13 198.73,322.54 35.01,97.24 37.91,182.46 8.98,255.22 -28.92,72.76 -89.5,132.73 -181.69,179.41 -92.41,46.77 -215.25,79.54 -365.95,98.1 -301.41,37.13 -709.69,16.89 -1196.65,-57.12 -973.57,-147.93 -2257,-510 -3619.19,-1051.44 -1362.2,-541.44 -2544.01,-1159.24 -3353.48,-1720.02 -404.88,-280.48 -715.63,-546.03 -909.31,-779.93 -96.85,-116.96 -163.7,-225.15 -198.75,-322.56 -35.01,-97.24 -37.9,-182.44 -8.98,-255.21z"/>
     <path class="fil1 str0" d="M3642.02 1244.65c35.15,-69.96 100.76,-124.41 196.68,-162.88 96.08,-38.55 221.35,-60.48 373.1,-65.83 303.49,-10.7 708.43,45.04 1187.09,161.19 956.97,232.22 2203.97,704.78 3513.81,1362.88 1309.83,658.1 2433.28,1376.54 3190.76,2005.75 378.96,314.7 665.37,606.33 837.93,856.22 86.23,124.95 143.39,238.55 169.88,338.65 26.34,99.92 21.85,185.07 -13.32,255.01 -35.16,69.97 -100.76,124.43 -196.67,162.86 -96.06,38.59 -221.35,60.51 -373.12,65.83 -303.46,10.74 -708.39,-44.98 -1187.08,-161.17 -956.96,-232.22 -2204,-704.78 -3513.8,-1362.88 -1309.82,-658.09 -2433.28,-1376.54 -3190.81,-2005.74 -378.89,-314.71 -665.31,-606.33 -837.87,-856.23 -86.29,-124.94 -143.45,-238.55 -169.89,-338.64 -26.39,-99.91 -21.85,-185.06 13.3,-255.02z"/>
     <path class="fil1 str0" d="M3850.26 802.66c41.12,-66.63 111.22,-115.15 210.12,-145.12 99.08,-30 225.79,-40.95 377.43,-33.06 303.26,15.79 701.8,106.61 1168.52,264.03 933.09,314.76 2134.17,894.2 3381.65,1663.95 1247.51,769.76 2304.03,1583.38 3003.82,2276.22 350.05,346.54 609.98,662.01 760.07,925.98 75.06,132.01 122.17,250.15 139.75,352.16 17.58,101.85 5.64,186.25 -35.47,252.92 -41.1,66.61 -111.2,115.17 -210.15,145.08 -99.02,30.06 -225.75,40.95 -377.37,33.11 -303.32,-15.83 -701.84,-106.65 -1168.57,-264.04 -933.08,-314.77 -2134.15,-894.22 -3381.62,-1663.98 -1247.49,-769.76 -2304.06,-1583.37 -3003.85,-2276.2 -350.03,-346.53 -609.94,-662.02 -760.07,-925.99 -75.06,-131.98 -122.12,-250.15 -139.72,-352.16 -17.58,-101.83 -5.64,-186.26 35.47,-252.89z"/>
     <path class="fil1 str0" d="M4092.75 381.84c46.76,-62.78 120.83,-105.03 221.97,-126.25 101.32,-21.27 228.49,-21.13 378.87,-0.04 300.73,42.16 689.85,167.36 1141.05,364.87 902.12,394.87 2048.11,1076.79 3223.73,1952.34 1175.65,875.54 2157.28,1778.17 2794.05,2529.34 318.53,375.72 549.92,712.66 676.49,988.71 63.26,138 99.87,259.87 108.46,363 8.68,102.99 -10.58,186.02 -57.39,248.81 -46.73,62.8 -120.79,105.03 -221.94,126.27 -101.31,21.32 -228.5,21.17 -378.9,0.08 -300.72,-42.17 -689.81,-167.37 -1141.02,-364.89 -902.09,-394.89 -2048.14,-1076.8 -3223.78,-1952.35 -1175.64,-875.56 -2157.27,-1778.17 -2794.03,-2529.34 -318.49,-375.72 -549.92,-712.65 -676.46,-988.72 -63.28,-138.03 -99.86,-259.82 -108.5,-363 -8.64,-102.98 10.61,-186.05 57.38,-248.85z"/>
     <path class="fil1 str0" d="M4367.56 -14.94c52.07,-58.48 129.53,-94.11 232.13,-106.44 102.8,-12.34 229.47,-1.11 377.44,32.99 295.92,68.21 672.63,226.86 1104.91,462.94 864.27,472 1946.46,1251.2 3041.34,2225.89 1094.9,974.68 1994.09,1959.41 2562.98,2763.24 284.51,402.06 485.68,757.84 587.68,1043.87 50.99,143.09 76.86,267.61 76.49,371.13 -0.38,103.37 -26.8,184.43 -78.86,242.89 -52.06,58.45 -129.53,94.06 -232.14,106.4 -102.75,12.41 -229.48,1.14 -377.44,-32.96 -295.93,-68.2 -672.61,-226.89 -1104.94,-462.93 -864.19,-471.97 -1946.42,-1251.21 -3041.3,-2225.89 -1094.86,-974.69 -1994.09,-1959.43 -2562.96,-2763.25 -284.53,-402.06 -485.71,-757.86 -587.72,-1043.9 -51.01,-143.03 -76.83,-267.55 -76.44,-371.07 0.37,-103.35 26.78,-184.41 78.83,-242.89z"/>
     <path class="fil1 str0" d="M4672.44 -384.94c56.94,-53.72 137.22,-82.46 240.51,-85.81 103.48,-3.34 228.69,18.89 373.12,65.76 288.85,93.74 650.3,284.61 1060.38,557.48 819.83,545.52 1829.99,1416.07 2835.77,2482.48 1005.69,1066.4 1815.69,2125.76 2312.33,2976.11 248.43,425.31 417.86,797.31 494.51,1091.18 38.37,146.9 53.2,273.18 43.84,376.31 -9.37,102.9 -42.78,181.37 -99.71,235.11 -57.01,53.66 -137.24,82.43 -240.52,85.78 -103.52,3.35 -228.72,-18.87 -373.19,-65.76 -288.85,-93.76 -650.23,-284.59 -1060.34,-557.46 -819.81,-545.57 -1830,-1416.11 -2835.75,-2482.5 -1005.74,-1066.4 -1815.72,-2125.76 -2312.37,-2976.1 -248.41,-425.32 -417.8,-797.32 -494.5,-1091.16 -38.33,-146.93 -53.21,-273.22 -43.81,-376.32 9.37,-102.92 42.76,-181.38 99.73,-235.09z"/>
     <path class="fil1 str0" d="M5004.95 -725.63c61.43,-48.54 143.9,-70.19 247.09,-64.51 103.37,5.68 226.16,38.74 365.98,98.02 279.57,118.56 623.02,340.21 1007.73,647.78 769.18,614.9 1699.62,1570.18 2608.61,2720.19 908.94,1149.99 1623.57,2275.92 2044.18,3166.31 210.37,445.36 346.76,830.73 397.54,1130.07 25.34,149.72 29.15,276.83 10.82,378.74 -18.29,101.69 -58.4,176.96 -119.83,225.53 -61.41,48.56 -143.91,70.18 -247.05,64.46 -103.37,-5.63 -226.21,-38.75 -366.03,-98.04 -279.57,-118.51 -622.99,-340.15 -1007.75,-647.74 -769.12,-614.91 -1699.59,-1570.19 -2608.56,-2720.19 -908.98,-1150 -1623.56,-2275.9 -2044.2,-3166.31 -210.39,-445.35 -346.73,-830.69 -397.52,-1130.09 -25.39,-149.71 -29.19,-276.83 -10.85,-378.71 18.31,-101.71 58.41,-176.96 119.83,-225.51z"/>
     <path class="fil1 str0" d="M5362.43 -1034.75c65.43,-43.01 149.46,-57.37 251.78,-42.73 102.48,14.67 221.93,58.31 356.04,129.55 268.18,142.47 590.98,393.22 947.44,733.13 712.65,679.6 1556.31,1712.35 2361.57,2937.2 805.28,1224.83 1419.06,2408.76 1760.5,3332.43 170.72,462.02 273.02,857.73 297.44,1160.43 12.27,151.39 4.95,278.35 -22.14,378.2 -27.09,99.8 -73.61,171.26 -139.05,214.27 -65.4,43 -149.5,57.33 -251.8,42.69 -102.45,-14.68 -221.87,-58.3 -355.98,-129.54 -268.22,-142.48 -591.03,-393.2 -947.46,-733.12 -712.65,-679.62 -1556.33,-1712.36 -2361.62,-2937.2 -805.28,-1224.85 -1419.01,-2408.77 -1760.45,-3332.43 -170.78,-461.99 -273.02,-857.75 -297.51,-1160.44 -12.24,-151.36 -4.95,-278.32 22.2,-378.22 27.12,-99.72 73.61,-171.2 139.02,-214.2z"/>
     <path class="fil1 str0" d="M5742.04 -1310.22c68.92,-37.14 153.9,-44.13 254.54,-20.62 100.81,23.55 216.01,77.43 343.38,160.08 254.75,165.32 554.48,443.23 879.95,812.93 650.72,739.13 1401.15,1841.48 2096.65,3131.84 695.43,1290.37 1203.65,2523.27 1463.28,3473.16 129.85,475.11 197.22,878.28 195.24,1181.97 -1,151.85 -19.34,277.74 -55.11,374.86 -35.7,96.96 -88.22,164.09 -157.1,201.24 -68.96,37.15 -153.9,44.15 -254.6,20.63 -100.77,-23.52 -216.01,-77.41 -343.35,-160.07 -254.75,-165.31 -554.48,-443.21 -879.95,-812.89 -650.71,-739.14 -1401.15,-1841.49 -2096.62,-3131.87 -695.47,-1290.35 -1203.67,-2523.27 -1463.31,-3473.17 -129.87,-475.12 -197.22,-878.29 -195.24,-1181.96 0.98,-151.85 19.31,-277.69 55.07,-374.85 35.7,-96.98 88.26,-164.13 157.17,-201.28z"/>
     <path class="fil1 str0" d="M10829.39 -1622.85c66.67,41.11 115.16,111.2 145.14,210.12 30.06,99.08 40.95,225.78 33.02,377.42 -15.74,303.27 -106.54,701.81 -263.95,1168.52 -314.8,933.11 -894.26,2134.17 -1663.99,3381.65 -769.74,1247.48 -1583.37,2304.05 -2276.19,3003.89 -346.54,349.96 -662.01,609.9 -926,759.99 -132,75.12 -250.14,122.16 -352.17,139.74 -101.83,17.58 -186.26,5.63 -252.89,-35.47 -66.63,-41.11 -115.17,-111.21 -145.13,-210.15 -30.01,-99.02 -40.96,-225.75 -33.06,-377.36 15.79,-303.31 106.61,-701.85 264.04,-1168.54 314.74,-933.11 894.19,-2134.17 1663.94,-3381.65 769.76,-1247.48 1583.39,-2304.05 2276.19,-3003.85 346.54,-350.03 662.05,-609.94 926,-760.06 131.98,-75.07 250.19,-122.12 352.18,-139.73 101.84,-17.58 186.24,-5.64 252.85,35.48z"/>
     <path class="fil1 str0" d="M11194.51 -1402.5c62.79,46.76 105.04,120.82 126.26,221.96 21.32,101.32 21.17,228.49 0.08,378.87 -42.17,300.74 -167.37,689.85 -364.89,1141.07 -394.87,902.1 -1076.78,2048.11 -1952.31,3223.76 -875.59,1175.64 -1778.2,2157.28 -2529.38,2794.01 -375.72,318.53 -712.66,549.91 -988.71,676.48 -138.04,63.25 -259.84,99.87 -363,108.48 -102.98,8.67 -186.05,-10.59 -248.84,-57.33 -62.8,-46.8 -105.03,-120.87 -126.26,-222.02 -21.27,-101.31 -21.13,-228.5 -0.04,-378.82 42.15,-300.8 167.35,-689.88 364.87,-1141.1 394.88,-902.1 1076.8,-2048.09 1952.35,-3223.74 875.56,-1175.66 1778.18,-2157.29 2529.35,-2794.04 375.69,-318.5 712.65,-549.93 988.72,-676.47 137.99,-63.27 259.85,-99.85 362.98,-108.49 102.99,-8.64 186.02,10.61 248.82,57.38z"/>
     <path class="fil1 str0" d="M11535.57 -1149.85c58.46,52.06 94.07,129.52 106.41,232.13 12.33,102.79 1.13,229.46 -32.97,377.43 -68.19,295.92 -226.89,672.63 -462.92,1104.92 -472.06,864.26 -1251.22,1946.46 -2225.93,3041.32 -974.67,1094.86 -1959.4,1994.09 -2763.21,2562.97 -402.06,284.52 -757.88,485.69 -1043.92,587.67 -143.03,51.07 -267.54,76.88 -371.07,76.5 -103.35,-0.39 -184.41,-26.8 -242.88,-78.86 -58.49,-52.07 -94.12,-129.55 -106.45,-232.15 -12.35,-102.75 -1.12,-229.48 32.98,-377.44 68.21,-295.89 226.86,-672.61 462.93,-1104.9 472,-864.27 1251.2,-1946.46 2225.89,-3041.33 974.68,-1094.86 1959.39,-1994.09 2763.23,-2562.96 402.02,-284.53 757.85,-485.71 1043.89,-587.71 143.02,-51.01 267.54,-76.83 371.13,-76.45 103.28,0.37 184.34,26.78 242.88,78.85z"/>
     <path class="fil1 str0" d="M11849.85 -867.13c53.73,56.96 82.44,137.22 85.78,240.52 3.35,103.48 -18.88,228.69 -65.76,373.12 -93.71,288.85 -284.59,650.3 -557.46,1060.36 -545.51,819.84 -1416.09,1830.01 -2482.52,2835.76 -1066.37,1005.75 -2125.73,1815.73 -2976.07,2312.37 -425.31,248.4 -797.31,417.82 -1091.15,494.47 -146.94,38.36 -273.23,53.21 -376.33,43.84 -102.93,-9.36 -181.38,-42.78 -235.1,-99.7 -53.71,-56.94 -82.45,-137.24 -85.8,-240.52 -3.34,-103.49 18.89,-228.69 65.76,-373.13 93.74,-288.86 284.61,-650.3 557.47,-1060.37 545.53,-819.84 1416.08,-1830.01 2482.48,-2835.75 1066.39,-1005.75 2125.78,-1815.74 2976.12,-2312.38 425.31,-248.41 797.28,-417.81 1091.15,-494.5 146.9,-38.34 273.17,-53.21 376.31,-43.81 102.91,9.37 181.39,42.76 235.12,99.72z"/>
     <path class="fil1 str0" d="M12134.81 -556.78c48.56,61.43 70.18,143.91 64.47,247.09 -5.63,103.37 -38.74,226.17 -98.03,365.97 -118.52,279.57 -340.16,623.03 -647.73,1007.74 -614.92,769.17 -1570.22,1699.62 -2720.22,2608.6 -1149.98,908.98 -2275.92,1623.56 -3166.31,2044.19 -445.34,210.39 -830.69,346.72 -1130.09,397.54 -149.71,25.34 -276.83,29.15 -378.72,10.81 -101.71,-18.27 -176.96,-58.38 -225.5,-119.81 -48.56,-61.41 -70.18,-143.9 -64.52,-247.09 5.69,-103.36 38.76,-226.16 98.02,-365.96 118.57,-279.59 340.21,-623.03 647.78,-1007.75 614.91,-769.17 1570.19,-1699.62 2720.19,-2608.6 1149.99,-908.98 2275.89,-1623.56 3166.33,-2044.2 445.34,-210.39 830.7,-346.73 1130.06,-397.5 149.72,-25.4 276.82,-29.2 378.74,-10.85 101.69,18.31 176.97,58.41 225.52,119.82z"/>
     <path class="fil1 str0" d="M12388.2 -221.45c43,65.41 57.3,149.46 42.69,251.77 -14.69,102.48 -58.3,221.93 -129.54,356.04 -142.49,268.18 -393.21,591 -733.13,947.44 -679.61,712.66 -1712.33,1556.3 -2937.2,2361.6 -1224.86,805.29 -2408.77,1419 -3332.43,1760.44 -462,170.79 -857.76,273.01 -1160.44,297.51 -151.36,12.25 -278.32,4.96 -378.22,-22.19 -99.73,-27.11 -171.19,-73.61 -214.2,-139.03 -43.01,-65.42 -57.37,-149.47 -42.73,-251.78 14.67,-102.48 58.3,-221.93 129.54,-356.03 142.48,-268.19 393.21,-591 733.13,-947.46 679.61,-712.66 1712.35,-1556.31 2937.2,-2361.59 1224.84,-805.29 2408.8,-1419.01 3332.44,-1760.45 462.01,-170.78 857.72,-273.01 1160.43,-297.51 151.39,-12.25 278.35,-4.96 378.2,22.2 99.79,27.1 171.26,73.6 214.26,139.03z"/>
     <path class="fil1 str0" d="M12607.86 136.01c37.13,68.92 44.15,153.89 20.63,254.54 -23.52,100.81 -77.4,216 -160.07,343.37 -165.32,254.75 -443.21,554.48 -812.89,879.96 -739.13,650.7 -1841.5,1401.14 -3131.87,2096.62 -1290.37,695.46 -2523.27,1203.67 -3473.17,1463.3 -475.12,129.86 -878.29,197.22 -1181.96,195.23 -151.84,-0.99 -277.69,-19.31 -374.84,-55.07 -96.99,-35.7 -164.13,-88.25 -201.27,-157.16 -37.15,-68.93 -44.13,-153.9 -20.63,-254.55 23.56,-100.81 77.43,-216 160.07,-343.38 165.32,-254.75 443.24,-554.48 812.93,-879.95 739.13,-650.7 1841.48,-1401.14 3131.84,-2096.61 1290.37,-695.48 2523.27,-1203.69 3473.16,-1463.32 475.18,-129.85 878.28,-197.22 1181.97,-195.24 151.84,0.99 277.73,19.32 374.86,55.07 96.96,35.69 164.1,88.24 201.24,157.17z"/>
     <path class="fil1 str0" d="M12792.13 512.56c31.06,71.89 30.6,157.15 -1.6,255.37 -32.27,98.37 -95.97,208.43 -189.44,328.13 -186.86,239.36 -489.88,513.74 -886.5,805.74 -793.03,583.81 -1956.58,1235.32 -3302.66,1815.68 -1346.08,580.37 -2618.57,979.19 -3587.49,1155.03 -484.64,87.97 -892.15,119.93 -1194.48,91.48 -151.18,-14.22 -274.95,-43.44 -368.61,-87.54 -93.51,-44 -155.83,-102.21 -186.82,-174.11 -31,-71.9 -30.54,-157.15 1.64,-255.36 32.25,-98.38 95.96,-208.44 189.41,-328.13 186.87,-239.37 489.85,-513.75 886.5,-805.75 793.04,-583.82 1956.59,-1235.31 3302.66,-1815.68 1346.07,-580.37 2618.61,-979.18 3587.54,-1155.04 484.61,-87.96 892.13,-119.91 1194.45,-91.48 151.16,14.22 274.92,43.46 368.62,87.54 93.54,44.02 155.8,102.22 186.78,174.12z"/>
    </g>
   </g>
  </g>
  <polygon class="fil2" points="-0.97,1.35 12443.76,1.35 12443.76,7951.98 -0.97,7951.98 "/>
 </g>
</svg>
