<svg width="32" height="33" viewBox="0 0 32 33" fill="none" xmlns="http://www.w3.org/2000/svg">
<rect x="0.5" y="0.756592" width="30.9998" height="30.9998" rx="2.69998" stroke="#494B4E"/>
<g clip-path="url(#clip0_506_425)">
<path fill-rule="evenodd" clip-rule="evenodd" d="M21.6405 19.481C21.6405 20.969 20.4885 22.1772 19.0732 22.1772H12.9279C11.5126 22.1772 10.3606 20.969 10.3606 19.481V13.0284C10.3606 11.5418 11.5126 10.3336 12.9279 10.3336H19.0732C20.4885 10.3336 21.6405 11.5418 21.6405 13.0284V19.481ZM19.0732 9.05542H12.9279C10.8406 9.05542 9.14345 10.8376 9.14345 13.0284V19.481C9.14345 21.6732 10.8406 23.4553 12.9286 23.4553H19.0725C21.1605 23.4553 22.8577 21.6732 22.8577 19.481V13.0284C22.8577 10.8376 21.1605 9.05542 19.0725 9.05542H19.0732Z" fill="#B6C0CD"/>
<path fill-rule="evenodd" clip-rule="evenodd" d="M16.0008 19.294C15.2859 19.2935 14.6003 19.0092 14.0947 18.5037C13.589 17.9982 13.3047 17.3128 13.3039 16.5978C13.3045 15.8826 13.5887 15.1968 14.0944 14.6909C14.6 14.185 15.2856 13.9004 16.0008 13.8995C16.7161 13.9002 17.4019 14.1848 17.9075 14.6907C18.4132 15.1966 18.6974 15.8825 18.6977 16.5978C18.6968 17.3127 18.4124 17.998 17.9067 18.5033C17.4011 19.0087 16.7157 19.2928 16.0008 19.2933V19.294ZM16.0008 12.4842C13.7325 12.4842 11.8866 14.3288 11.8866 16.5978C11.8878 17.6886 12.3217 18.7345 13.093 19.5059C13.8642 20.2773 14.91 20.7113 16.0008 20.7127C18.2692 20.7127 20.1151 18.8654 20.1151 16.5978C20.1138 15.5071 19.6799 14.4614 18.9086 13.6902C18.1373 12.919 17.0915 12.4853 16.0008 12.4842ZM19.0872 11.1128C18.817 11.1128 18.5503 11.2211 18.3604 11.4131C18.1697 11.6051 18.058 11.8698 18.058 12.14C18.058 12.4108 18.1697 12.6762 18.3597 12.8682C18.5503 13.0582 18.817 13.1699 19.0872 13.1699C19.3581 13.1699 19.6228 13.0582 19.8134 12.8682C20.0054 12.6762 20.1151 12.4108 20.1151 12.1407C20.1152 12.0057 20.0887 11.872 20.037 11.7472C19.9854 11.6225 19.9097 11.5091 19.8142 11.4137C19.7188 11.3182 19.6054 11.2425 19.4807 11.1909C19.3559 11.1392 19.2222 11.1127 19.0872 11.1128Z" fill="#B6C0CD"/>
</g>
<defs>
<clipPath id="clip0_506_425">
<rect x="8.7998" y="9.05737" width="14.3999" height="14.3999" fill="white"/>
</clipPath>
</defs>
</svg>
