<svg width="32" height="33" viewBox="0 0 32 33" fill="none" xmlns="http://www.w3.org/2000/svg">
<rect x="0.5" y="0.756836" width="31" height="31" rx="2.7" stroke="#494B4E"/>
<g clip-path="url(#clip0_506_417)">
<path fill-rule="evenodd" clip-rule="evenodd" d="M8.98212 23.0332H12.068V13.8883H8.98212V23.0332ZM10.5449 9.48022C9.48951 9.48022 8.8 10.163 8.8 11.06C8.8 11.9392 9.47087 12.6398 10.5051 12.6398H10.5263C11.6021 12.6398 12.2713 11.9392 12.2713 11.06C12.2518 10.1621 11.6021 9.48022 10.5449 9.48022ZM23.2 17.7882V23.0332H20.1125V18.1397C20.1125 16.9115 19.6669 16.0729 18.548 16.0729C17.695 16.0729 17.1901 16.6379 16.964 17.1851C16.8835 17.3799 16.8623 17.6535 16.8623 17.9254V23.0332H13.7765C13.7765 23.0332 13.8188 14.7472 13.7765 13.8883H16.864V15.1843C16.8581 15.1945 16.8488 15.2038 16.8428 15.2148H16.864V15.1835C17.2748 14.5617 18.0058 13.674 19.6457 13.674C21.6753 13.674 23.2 14.9802 23.2 17.7882Z" fill="#B6C0CD"/>
</g>
<defs>
<clipPath id="clip0_506_417">
<rect x="8.7998" y="9.05664" width="14.4" height="14.4" fill="white"/>
</clipPath>
</defs>
</svg>
