<svg width="32" height="33" viewBox="0 0 32 33" fill="none" xmlns="http://www.w3.org/2000/svg">
<rect x="0.5" y="0.756592" width="30.9998" height="30.9998" rx="2.69998" stroke="#494B4E"/>
<g clip-path="url(#clip0_506_431)">
<path fill-rule="evenodd" clip-rule="evenodd" d="M21.7342 13.7468C21.7342 13.6165 21.7273 13.4938 21.7219 13.3649C22.3019 12.9603 22.803 12.453 23.2003 11.868C22.6595 12.0974 22.0874 12.2449 21.5031 12.3054C22.1184 11.952 22.581 11.3834 22.8019 10.7091C22.2204 11.0406 21.5862 11.2698 20.9271 11.3866C20.651 11.09 20.3179 10.8522 19.9476 10.6875C19.5774 10.5228 19.1778 10.4345 18.7726 10.428C18.3864 10.421 18.0027 10.4912 17.6439 10.6344C17.2852 10.7775 16.9586 10.9908 16.6832 11.2618C16.4079 11.5327 16.1894 11.8558 16.0404 12.2122C15.8915 12.5686 15.8151 12.9512 15.8158 13.3374C15.8158 13.5671 15.8398 13.7907 15.8933 14.0087C13.4357 13.8579 11.2579 12.6531 9.80283 10.8325C9.53847 11.2848 9.39952 11.7994 9.40032 12.3233C9.40032 13.3587 9.92352 14.2782 10.7176 14.8165C10.246 14.7963 9.78608 14.6634 9.37632 14.4291V14.4695C9.37634 15.1568 9.61212 15.8233 10.0443 16.3577C10.4765 16.892 11.0789 17.262 11.7509 17.4058C11.4973 17.4733 11.2358 17.5069 10.9733 17.5059C10.7858 17.5027 10.5989 17.482 10.4152 17.4442C10.6002 18.0357 10.9659 18.5544 11.461 18.9273C11.9561 19.3002 12.5555 19.5086 13.1752 19.5232C12.5622 20.0044 11.86 20.3596 11.1092 20.5684C10.3584 20.7771 9.57373 20.8354 8.80032 20.7397C10.1471 21.6196 11.7214 22.0872 13.3301 22.085C18.761 22.085 21.7342 17.6183 21.7342 13.7468Z" fill="#B6C0CD"/>
</g>
<defs>
<clipPath id="clip0_506_431">
<rect x="8.80078" y="9.05737" width="14.3999" height="14.3999" fill="white"/>
</clipPath>
</defs>
</svg>
