<?xml version="1.0" encoding="UTF-8"?>
<!DOCTYPE svg PUBLIC "-//W3C//DTD SVG 1.1//EN" "http://www.w3.org/Graphics/SVG/1.1/DTD/svg11.dtd">
<!-- Creator: CorelDRAW 2021 (64-Bit) -->
<svg xmlns="http://www.w3.org/2000/svg" xml:space="preserve" width="3243" height="1350.73" version="1.1" style="shape-rendering:geometricPrecision; text-rendering:geometricPrecision; image-rendering:optimizeQuality; fill-rule:evenodd; clip-rule:evenodd"
viewBox="0 0 3243.69 1350.73"
 xmlns:xlink="http://www.w3.org/1999/xlink"
 xmlns:xodm="http://www.corel.com/coreldraw/odm/2003">
 <defs>
  <style type="text/css">
   <![CDATA[
    .str0 {stroke:#F5F7FC;stroke-width:22.01;stroke-miterlimit:2.61313}
    .fil0 {fill:none}
    .fil2 {fill:none;fill-rule:nonzero}
    .fil3 {fill:#DCE3EB;fill-rule:nonzero}
    .fil1 {fill:white;fill-rule:nonzero}
   ]]>
  </style>
 </defs>
 <g id="Layer_x0020_1">
  <metadata id="CorelCorpID_0Corel-Layer"/>
  <rect class="fil0" x="-1.49" y="1.3" width="3243.7" height="1350.73"/>
  <g id="_1649558342032">
   <g filter="url(#filter4_d_1_1147)">
    <path class="fil1" d="M164.8 29.94l2911.13 0c78.3,0 141.8,96.63 141.8,215.79l0 860.74c0,119.15 -63.5,215.78 -141.8,215.78l-2911.13 0.01c-78.3,-0.01 -141.8,-96.64 -141.8,-215.8l0 -860.73c0,-119.17 63.5,-215.8 141.8,-215.8z"/>
    <path class="fil2 str0" d="M164.8 57.01l2911.12 0c68.52,0 124.07,84.56 124.07,188.81l0.01 860.74c-0.01,104.26 -55.57,188.8 -124.08,188.8l-2911.12 0.02c-68.52,-0.02 -124.07,-84.57 -124.07,-188.83l0 -860.72c0,-104.26 55.56,-188.82 124.07,-188.82z"/>
   </g>
   <path class="fil3" d="M379.45 860.63l227.28 0c29.36,0 53.17,36.24 53.17,80.92l0.01 7.4c-0.01,44.68 -23.82,80.91 -53.18,80.91l-227.28 0.01c-29.36,-0.01 -53.17,-36.24 -53.17,-80.93l0 -7.38c0,-44.69 23.81,-80.93 53.17,-80.93z"/>
   <path class="fil3" d="M361.66 522.28l333.63 0c19.54,-0.01 35.39,24.1 35.39,53.84l0 0.01c0,29.72 -15.85,53.83 -35.39,53.83l-333.63 0.01c-19.54,-0.01 -35.39,-24.12 -35.39,-53.85l0 0.01c0,-29.74 15.84,-53.85 35.39,-53.85z"/>
   <path class="fil3" d="M1089.59 522.28l232.53 0c19.54,-0.01 35.39,24.1 35.39,53.84l0 0.01c0,29.72 -15.85,53.83 -35.39,53.83l-232.53 0.01c-19.54,-0.01 -35.39,-24.12 -35.39,-53.85l0 0.01c0,-29.74 15.84,-53.85 35.39,-53.85z"/>
   <path class="fil3" d="M1777.06 522.28l333.63 0c19.54,-0.01 35.38,24.1 35.38,53.84l0 0.01c0,29.72 -15.84,53.83 -35.38,53.83l-333.63 0.01c-19.54,-0.01 -35.38,-24.12 -35.38,-53.85l0 0.01c0,-29.74 15.84,-53.85 35.38,-53.85z"/>
   <path class="fil3" d="M2545.42 522.28l141.54 0c19.54,-0.01 35.39,24.1 35.39,53.84l0.01 0.01c-0.01,29.72 -15.85,53.83 -35.39,53.83l-141.54 0.01c-19.54,-0.01 -35.38,-24.12 -35.38,-53.85l0 0.01c0,-29.74 15.84,-53.85 35.38,-53.85z"/>
   <path class="fil3" d="M346.5 429.83l283.07 0c11.17,-0.01 20.22,13.78 20.22,30.76l0 0.01c0,16.98 -9.06,30.76 -20.22,30.76l-283.07 0.01c-11.16,-0.01 -20.22,-13.78 -20.22,-30.78l0 0.01c0,-17 9.06,-30.78 20.22,-30.78z"/>
   <path class="fil3" d="M1074.43 429.83l313.41 0c11.16,-0.01 20.22,13.78 20.22,30.76l0 0.01c0,16.98 -9.06,30.76 -20.22,30.76l-313.41 0.01c-11.16,-0.01 -20.22,-13.78 -20.22,-30.78l0 0.01c0,-17 9.06,-30.78 20.22,-30.78z"/>
   <path class="fil3" d="M1761.9 429.83l475.17 0c11.16,-0.01 20.22,13.78 20.22,30.76l0 0.01c0,16.98 -9.06,30.76 -20.22,30.76l-475.17 0.01c-11.16,-0.01 -20.22,-13.78 -20.22,-30.78l0 0.01c0,-17 9.06,-30.78 20.22,-30.78z"/>
   <path class="fil3" d="M2530.26 429.83l242.64 0c11.16,-0.01 20.22,13.78 20.22,30.76l0 0.01c0,16.98 -9.06,30.76 -20.22,30.76l-242.64 0.01c-11.17,-0.01 -20.22,-13.78 -20.22,-30.78l0 0.01c0,-17 9.06,-30.78 20.22,-30.78z"/>
   <path class="fil3" d="M1066.96 860.63l298.05 0c29.36,0 53.17,36.24 53.17,80.92l0.01 7.4c-0.01,44.68 -23.82,80.91 -53.18,80.91l-298.05 0.01c-29.36,-0.01 -53.17,-36.24 -53.17,-80.93l0 -7.38c0,-44.69 23.81,-80.93 53.17,-80.93z"/>
   <path class="fil3" d="M1764.54 860.63l146.39 0c29.37,0 53.18,36.24 53.18,80.92l0 7.4c0,44.68 -23.81,80.91 -53.18,80.91l-146.39 0.01c-29.36,-0.01 -53.17,-36.24 -53.17,-80.93l-0 -7.38c0,-44.69 23.81,-80.93 53.18,-80.93z"/>
   <path class="fil3" d="M2563.21 860.63l227.28 0c29.36,0 53.17,36.24 53.17,80.92l0 7.4c0,44.68 -23.81,80.91 -53.17,80.91l-227.28 0.01c-29.37,-0.01 -53.17,-36.24 -53.17,-80.93l0 -7.38c0,-44.69 23.81,-80.93 53.17,-80.93z"/>
  </g>
 </g>
</svg>
