<?xml version="1.0" encoding="UTF-8"?>
<!DOCTYPE svg PUBLIC "-//W3C//DTD SVG 1.1//EN" "http://www.w3.org/Graphics/SVG/1.1/DTD/svg11.dtd">
<!-- Creator: CorelDRAW 2021 (64-Bit) -->
<svg xmlns="http://www.w3.org/2000/svg" xml:space="preserve" width="3.24369in" height="1.35073in" version="1.1" style="shape-rendering:geometricPrecision; text-rendering:geometricPrecision; image-rendering:optimizeQuality; fill-rule:evenodd; clip-rule:evenodd"
viewBox="0 0 3243.69 1350.73"
 xmlns:xlink="http://www.w3.org/1999/xlink"
 xmlns:xodm="http://www.corel.com/coreldraw/odm/2003">
 <defs>
  <style type="text/css">
   <![CDATA[
    .str0 {stroke:#F5F7FC;stroke-width:15.5;stroke-miterlimit:2.61313}
    .fil0 {fill:none}
    .fil2 {fill:#E1E7EE;fill-rule:nonzero}
    .fil3 {fill:#F0F3F9;fill-rule:nonzero}
    .fil1 {fill:white;fill-rule:nonzero}
   ]]>
  </style>
 </defs>
 <g id="Layer_x0020_1">
  <metadata id="CorelCorpID_0Corel-Layer"/>
  <rect class="fil0" x="-1.49" y="1.3" width="3243.7" height="1350.73"/>
  <g id="_1649544761104" filter="url(#filter1_d_1_1147)">
   <path class="fil1 str0" d="M141.92 55l2956.89 0c55.54,-0.01 100.58,59.76 100.58,133.46l-0.01 976.43c0.01,73.69 -45.03,133.46 -100.57,133.46l-2956.89 0.01c-55.53,-0.01 -100.57,-59.78 -100.57,-133.47l-0.01 -976.41c0.01,-73.7 45.05,-133.47 100.58,-133.47z"/>
   <path class="fil2" d="M387.56 900.77l376.97 0c31.69,-0.01 57.38,34.08 57.38,76.12l-0.02 0.01c0.02,42.03 -25.67,76.12 -57.35,76.12l-376.98 0c-31.68,0 -57.36,-34.09 -57.36,-76.13l-0.01 0.01c0.01,-42.05 25.69,-76.14 57.37,-76.14z"/>
   <path class="fil3" d="M1838.2 683.44l57.15 0c31.74,-0.01 57.48,34.15 57.48,76.25l-0.01 336.85c0.01,42.11 -25.73,76.25 -57.46,76.25l-57.16 0.01c-31.72,-0.01 -57.46,-34.16 -57.46,-76.28l-0.01 -336.83c0.01,-42.12 25.75,-76.28 57.48,-76.28z"/>
   <path class="fil3" d="M2067.65 857.46l57.15 0c31.74,-0.01 57.48,34.15 57.48,76.25l-0.01 173.72c0.01,42.11 -25.73,76.25 -57.46,76.25l-57.16 0.01c-31.72,-0.01 -57.46,-34.16 -57.46,-76.28l-0.01 -173.7c0.01,-42.12 25.74,-76.28 57.48,-76.28z"/>
   <path class="fil3" d="M2297.08 378.95l57.15 0c31.74,-0.01 57.48,34.15 57.48,76.26l-0.01 641.34c0.01,42.11 -25.73,76.26 -57.46,76.26l-57.15 0.02c-31.72,-0.02 -57.46,-34.17 -57.46,-76.28l-0.01 -641.32c0.01,-42.12 25.75,-76.28 57.48,-76.28z"/>
   <path class="fil3" d="M2526.57 552.98l57.15 0c31.74,0 57.48,34.15 57.48,76.26l-0.01 478.22c0.01,42.11 -25.73,76.25 -57.46,76.25l-57.15 0.01c-31.72,-0.01 -57.46,-34.16 -57.46,-76.28l-0.02 -478.2c0.02,-42.12 25.76,-76.27 57.48,-76.27z"/>
   <path class="fil3" d="M2756.01 857.46l57.15 0c31.74,-0.01 57.48,34.15 57.48,76.25l0 173.72c0,42.11 -25.74,76.25 -57.47,76.25l-57.16 0.01c-31.72,-0.01 -57.46,-34.16 -57.46,-76.28l-0.01 -173.7c0.01,-42.12 25.74,-76.28 57.48,-76.28z"/>
   <path class="fil3" d="M2985.48 683.44l57.16 0c31.74,-0.01 57.48,34.15 57.48,76.25l-0.01 336.85c0.01,42.11 -25.73,76.25 -57.46,76.25l-57.17 0.01c-31.72,-0.01 -57.46,-34.16 -57.46,-76.28l-0.01 -336.83c0.01,-42.12 25.75,-76.28 57.48,-76.28z"/>
  </g>
 </g>
</svg>
