<?xml version="1.0" encoding="UTF-8"?>
<!DOCTYPE svg PUBLIC "-//W3C//DTD SVG 1.1//EN" "http://www.w3.org/Graphics/SVG/1.1/DTD/svg11.dtd">
<!-- Creator: CorelDRAW 2021 (64-Bit) -->
<svg xmlns="http://www.w3.org/2000/svg" xml:space="preserve" width="6.80006in" height="4.08369in" version="1.1" style="shape-rendering:geometricPrecision; text-rendering:geometricPrecision; image-rendering:optimizeQuality; fill-rule:evenodd; clip-rule:evenodd"
viewBox="0 0 6800.06 4083.69"
 xmlns:xlink="http://www.w3.org/1999/xlink"
 xmlns:xodm="http://www.corel.com/coreldraw/odm/2003">
 <defs>
  <style type="text/css">
   <![CDATA[
    .str0 {stroke:#F5F7FC;stroke-width:15.5;stroke-miterlimit:2.61313}
    .str1 {stroke:#DCE3EB;stroke-width:7.74;stroke-miterlimit:2.61313}
    .fil0 {fill:none}
    .fil8 {fill:none;fill-rule:nonzero}
    .fil2 {fill:#DCE3EB;fill-rule:nonzero}
    .fil5 {fill:#E1E7EE;fill-rule:nonzero}
    .fil7 {fill:#EBF0F6;fill-rule:nonzero}
    .fil1 {fill:#EDF1F7;fill-rule:nonzero}
    .fil6 {fill:#F0F3F9;fill-rule:nonzero}
    .fil4 {fill:white;fill-rule:nonzero}
    .fil3 {fill:#F7F7F7;fill-rule:nonzero}
   ]]>
  </style>
 </defs>
 <g id="Layer_x0020_1">
  <metadata id="CorelCorpID_0Corel-Layer"/>
  <rect class="fil0" x="0" y="1.49" width="6800.06" height="4083.69"/>
  <g id="_1649535542288">
   <g>
    <path class="fil1" d="M428.96 336.47c0,-39.06 31.71,-70.78 70.83,-70.78l5782.77 0c48.89,0 88.53,39.56 88.53,88.47l0 95.14 -5942.13 0 0 -112.83z"/>
    <circle class="fil2" cx="527.18" cy="355.66" r="38.95"/>
    <circle class="fil2" cx="647.59" cy="355.66" r="38.95"/>
    <circle class="fil2" cx="775.07" cy="355.66" r="38.95"/>
    <circle class="fil2" cx="3069.74" cy="355.66" r="38.95"/>
    <path class="fil2" d="M3183.15 330.97l545.33 0c13.69,-0.01 24.79,11.09 24.79,24.78l0 0c0,13.69 -11.1,24.78 -24.79,24.78l-545.33 0.01c-13.69,-0.01 -24.78,-11.1 -24.78,-24.79l-0.02 0c0.02,-13.69 11.11,-24.79 24.8,-24.79z"/>
   </g>
   <polygon class="fil3" points="428.97,3820.96 6371.1,3820.96 6371.1,432.62 428.97,432.62 "/>
   <path class="fil4 str0" d="M3144.28 704.52l2988.35 0c48,-0.01 86.92,38.92 86.92,86.91l0 1154.05c0,47.99 -38.92,86.91 -86.92,86.91l-2988.35 0.01c-47.99,-0.01 -86.91,-38.94 -86.91,-86.93l-0.01 -1154.04c0.01,-48 38.93,-86.93 86.93,-86.93z"/>
   <path class="fil4 str0" d="M920.44 690.33l1883.52 0c48,-0.01 86.93,38.92 86.93,86.91l-0.01 629.96c0.01,47.99 -38.92,86.91 -86.91,86.91l-1883.53 0.01c-47.99,-0.01 -86.91,-38.93 -86.91,-86.93l-0.01 -629.95c0.01,-48 38.93,-86.93 86.93,-86.93z"/>
   <path class="fil5" d="M1068.98 1237.47l396.61 0c27.39,-0.01 49.59,22.19 49.59,49.57l-0.01 0.01c0.01,27.37 -22.19,49.57 -49.57,49.57l-396.61 0.01c-27.37,-0.01 -49.57,-22.21 -49.57,-49.59l-0.01 0.01c0.01,-27.39 22.2,-49.59 49.59,-49.59z"/>
   <path class="fil6" d="M2273.07 812.51l63.56 0c27.43,-0.01 49.67,22.24 49.67,49.66l-0.01 467.25c0.01,27.42 -22.24,49.66 -49.66,49.66l-63.56 0.01c-27.42,-0.01 -49.66,-22.25 -49.66,-49.68l-0.01 -467.24c0.01,-27.43 22.25,-49.67 49.67,-49.67z"/>
   <path class="fil6" d="M2478.46 989.6l49.39 0c27.43,-0 49.67,22.24 49.67,49.66l-0 297.28c0,27.42 -22.24,49.66 -49.66,49.66l-49.4 0c-27.42,-0 -49.66,-22.24 -49.66,-49.67l-0 -297.26c0,-27.43 22.25,-49.67 49.67,-49.67z"/>
   <path class="fil6" d="M2676.75 1237.47l49.39 0c27.43,-0 49.67,22.24 49.67,49.66l-0 49.4c0,27.42 -22.24,49.66 -49.66,49.66l-49.4 0c-27.42,-0 -49.66,-22.24 -49.66,-49.67l-0.01 -49.38c0.01,-27.43 22.25,-49.67 49.67,-49.67z"/>
   <path class="fil4 str0" d="M920.44 1915.64l1883.52 0c48,-0.01 86.93,38.92 86.93,86.91l-0.01 629.96c0.01,47.99 -38.92,86.91 -86.91,86.91l-1883.53 0.01c-47.99,-0.01 -86.91,-38.93 -86.91,-86.93l-0.01 -629.94c0.01,-48 38.93,-86.93 86.93,-86.93z"/>
   <path class="fil5" d="M1068.98 2462.62l396.61 0c27.39,-0.01 49.59,22.19 49.59,49.57l-0.01 0c0.01,27.37 -22.19,49.57 -49.57,49.57l-396.61 0c-27.37,-0 -49.57,-22.2 -49.57,-49.58l-0.01 0c0.01,-27.38 22.2,-49.58 49.59,-49.58z"/>
   <path class="fil6" d="M2273.07 2037.82l63.56 0c27.43,0 49.67,22.24 49.67,49.67l-0.01 467.25c0.01,27.42 -22.24,49.66 -49.66,49.66l-63.56 0c-27.42,-0 -49.66,-22.24 -49.66,-49.67l-0.01 -467.24c0.01,-27.43 22.25,-49.67 49.67,-49.67z"/>
   <path class="fil6" d="M2478.46 2214.75l49.39 0c27.43,-0 49.67,22.24 49.67,49.66l-0 297.28c0,27.43 -22.24,49.66 -49.66,49.66l-49.4 0.01c-27.42,-0.01 -49.66,-22.24 -49.66,-49.67l-0 -297.27c0,-27.43 22.25,-49.67 49.67,-49.67z"/>
   <path class="fil6" d="M2676.75 2462.62l49.39 0c27.43,-0.01 49.67,22.24 49.67,49.66l-0 49.39c0,27.43 -22.24,49.66 -49.66,49.66l-49.4 0.01c-27.42,-0.01 -49.66,-22.24 -49.66,-49.67l-0.01 -49.39c0.01,-27.43 22.25,-49.67 49.67,-49.67z"/>
   <path class="fil4 str0" d="M927.52 3140.79l1876.43 0c48,-0.01 86.93,38.92 86.93,86.91l-0.01 459.99c0.01,47.99 -38.92,86.91 -86.91,86.91l-1876.43 0.01c-47.99,-0.01 -86.91,-38.93 -86.91,-86.93l-0.01 -459.98c0.01,-48 38.93,-86.93 86.93,-86.93z"/>
   <path class="fil5" d="M1068.97 3588.78l396.61 0c27.39,-0.01 49.59,22.19 49.59,49.57l-0.01 0.01c0.01,27.37 -22.19,49.57 -49.57,49.57l-396.61 0c-27.37,0 -49.57,-22.2 -49.57,-49.58l0 0.01c0,-27.39 22.2,-49.59 49.58,-49.59z"/>
   <path class="fil6" d="M2273.07 3163.82l63.56 0c27.43,-0.01 49.67,22.24 49.67,49.66l-0.01 474.34c0.01,27.43 -22.24,49.66 -49.66,49.66l-63.56 0.01c-27.42,-0.01 -49.66,-22.24 -49.66,-49.67l-0.01 -474.33c0.01,-27.43 22.25,-49.68 49.67,-49.68z"/>
   <path class="fil6" d="M2485.54 3340.92l49.39 0c27.43,-0 49.67,22.24 49.67,49.66l-0.01 297.28c0.01,27.42 -22.24,49.66 -49.66,49.66l-49.4 0c-27.42,-0 -49.66,-22.24 -49.66,-49.67l-0.01 -297.26c0.01,-27.43 22.25,-49.67 49.68,-49.67z"/>
   <path class="fil6" d="M2683.83 3588.78l49.39 0c27.43,-0.01 49.67,22.24 49.67,49.66l-0 49.41c0,27.42 -22.24,49.66 -49.66,49.66l-49.4 0.01c-27.42,-0.01 -49.66,-22.24 -49.66,-49.67l-0.01 -49.39c0.01,-27.43 22.25,-49.67 49.67,-49.67z"/>
   <path class="fil7" d="M3278.74 2958.52l212.28 0c27.42,0 49.67,22.24 49.67,49.67l0.01 148.55c-0.01,27.43 -22.25,49.66 -49.67,49.66l-212.28 0c-27.42,-0 -49.66,-22.24 -49.66,-49.67l-0 -148.53c0,-27.43 22.25,-49.67 49.67,-49.67z"/>
   <path class="fil7" d="M3689.5 2809.8l226.45 0c27.42,-0 49.67,22.24 49.67,49.66l0 297.28c0,27.43 -22.24,49.66 -49.67,49.66l-226.45 0.01c-27.43,-0.01 -49.67,-22.24 -49.67,-49.67l0 -297.27c0,-27.43 22.24,-49.67 49.67,-49.67z"/>
   <path class="fil7" d="M4107.35 2611.33l226.45 0c27.43,-0 49.67,22.24 49.67,49.66l0 495.59c0,27.43 -22.24,49.66 -49.67,49.66l-226.45 0.01c-27.43,-0.01 -49.67,-22.24 -49.67,-49.67l0 -495.57c0,-27.43 22.24,-49.67 49.67,-49.67z"/>
   <path class="fil7" d="M4518.13 2413.05l226.45 0c27.43,-0.01 49.67,22.24 49.67,49.66l0 693.89c0,27.42 -22.24,49.66 -49.67,49.66l-226.45 0c-27.42,-0 -49.67,-22.24 -49.67,-49.67l0 -693.87c0,-27.43 22.24,-49.67 49.67,-49.67z"/>
   <path class="fil7" d="M4928.92 2214.75l226.44 0c27.42,-0 49.67,22.24 49.67,49.66l0 892.19c0,27.42 -22.24,49.66 -49.67,49.66l-226.44 0c-27.43,-0 -49.67,-22.24 -49.67,-49.67l0 -892.18c0,-27.43 22.24,-49.67 49.67,-49.67z"/>
   <path class="fil7" d="M5353.85 2611.33l226.45 0c27.43,-0 49.67,22.24 49.67,49.66l0 495.59c0,27.43 -22.24,49.66 -49.67,49.66l-226.45 0.01c-27.43,-0.01 -49.67,-22.24 -49.67,-49.67l0 -495.57c0,-27.43 22.24,-49.67 49.67,-49.67z"/>
   <path class="fil7" d="M5771.69 2809.8l226.44 0c27.43,-0 49.67,22.24 49.67,49.66l0 297.28c0,27.43 -22.24,49.66 -49.67,49.66l-226.44 0.01c-27.42,-0.01 -49.67,-22.24 -49.67,-49.67l-0.01 -297.27c0.01,-27.43 22.25,-49.67 49.67,-49.67z"/>
   <path class="fil8 str1" d="M4591.31 1082.41c0,-14.36 11.67,-26.04 26.06,-26.04l253.69 0c14.39,0 26.06,11.69 26.06,26.04l0 59.92c0,14.36 -11.67,26.04 -26.06,26.04l-77.09 0c-18.51,0 -36.27,7.34 -49.39,20.36 -0.2,0.17 -0.52,0.17 -0.71,0 -13.12,-13.02 -30.87,-20.36 -49.39,-20.36l-77.1 0c-14.39,0 -26.06,-11.69 -26.06,-26.04l0 -59.92z"/>
   <path class="fil2" d="M3496.11 899.13l643.45 0c27.33,-0.01 49.5,22.16 49.5,49.49l0 0.01c0,27.33 -22.17,49.49 -49.5,49.49l-643.45 0c-27.33,-0 -49.5,-22.17 -49.5,-49.5l0 0.01c0,-27.33 22.17,-49.5 49.5,-49.5z"/>
   <path class="fil2" d="M3478.43 1047.52l346.47 0c17.57,-0.01 31.82,14.24 31.82,31.81l0 0c0,17.56 -14.25,31.81 -31.82,31.81l-346.47 0.01c-17.57,-0.01 -31.82,-14.26 -31.82,-31.83l0 0c0,-17.57 14.25,-31.83 31.82,-31.83z"/>
   <path class="fil2" d="M4687.57 1125.31l113.13 0c5.85,-0.01 10.61,4.74 10.61,10.6l0 0.01c-0,5.85 -4.76,10.6 -10.61,10.6l-113.13 0c-5.85,-0 -10.61,-4.76 -10.61,-10.61l0 0.01c0,-5.86 4.75,-10.61 10.61,-10.61z"/>
   <path class="fil2" d="M4712.31 1089.92l49.5 0c7.81,-0.01 14.15,6.32 14.15,14.13l-0.01 0c0.01,7.8 -6.33,14.14 -14.14,14.14l-49.5 0.01c-7.81,-0.01 -14.15,-6.34 -14.15,-14.15l0 0c0,-7.81 6.33,-14.15 14.15,-14.15z"/>
  </g>
 </g>
</svg>
