<?xml version="1.0" encoding="UTF-8"?>
<!DOCTYPE svg PUBLIC "-//W3C//DTD SVG 1.1//EN" "http://www.w3.org/Graphics/SVG/1.1/DTD/svg11.dtd">
<!-- Creator: CorelDRAW 2021 (64-Bit) -->
<svg xmlns="http://www.w3.org/2000/svg" xml:space="preserve" width="4.43993in" height="2.7245in" version="1.1" style="shape-rendering:geometricPrecision; text-rendering:geometricPrecision; image-rendering:optimizeQuality; fill-rule:evenodd; clip-rule:evenodd"
viewBox="0 0 4439.93 2724.5"
 xmlns:xlink="http://www.w3.org/1999/xlink"
 xmlns:xodm="http://www.corel.com/coreldraw/odm/2003">
 <defs>
  <style type="text/css">
   <![CDATA[
    .str0 {stroke:#F5F7FC;stroke-width:36.53;stroke-miterlimit:2.61313}
    .fil0 {fill:none}
    .fil7 {fill:#DCE3EB;fill-rule:nonzero}
    .fil2 {fill:#E1E7EE;fill-rule:nonzero}
    .fil4 {fill:#EBF0F6;fill-rule:nonzero}
    .fil6 {fill:#EDF1F7;fill-rule:nonzero}
    .fil3 {fill:#F0F3F9;fill-rule:nonzero}
    .fil1 {fill:white;fill-rule:nonzero}
    .fil5 {fill:black;fill-rule:nonzero;fill-opacity:0.031373}
   ]]>
  </style>
 </defs>
 <g id="Layer_x0020_1">
  <metadata id="CorelCorpID_0Corel-Layer"/>
  <rect class="fil0" x="-0.04" y="1.08" width="4439.94" height="2724.51"/>
  <g id="_2144841738816">
   <g>
    <rect class="fil0" x="262.9" y="173.19" width="3879.59" height="2283.11"/>
    <g>
     <path class="fil1 str0" d="M1901 495.07l1896 0c30.45,0 55.15,24.7 55.15,55.15l0 732.2c-0,30.45 -24.7,55.15 -55.15,55.15l-1896 0c-30.45,0 -55.15,-24.69 -55.15,-55.15l-0 -732.2c0,-30.45 24.7,-55.15 55.15,-55.15z"/>
     <path class="fil1 str0" d="M490.06 486.09l1195.02 0c30.46,0 55.15,24.69 55.15,55.15l0 399.68c0,30.45 -24.69,55.15 -55.15,55.15l-1195.03 0c-30.45,0 -55.15,-24.7 -55.15,-55.15l0 -399.68c0,-30.45 24.7,-55.15 55.15,-55.15z"/>
     <path class="fil2" d="M584.3 833.19l251.63 0c17.37,0 31.45,14.09 31.45,31.46l0 0c0,17.37 -14.08,31.45 -31.45,31.45l-251.63 0c-17.37,0 -31.45,-14.09 -31.45,-31.45l0 0c0,-17.37 14.09,-31.46 31.45,-31.46z"/>
     <path class="fil3" d="M1348.25 563.59l40.32 0c17.4,0 31.52,14.11 31.52,31.51l0 296.45c0,17.4 -14.11,31.51 -31.51,31.51l-40.33 0c-17.4,0 -31.51,-14.11 -31.51,-31.51l0 -296.45c0,-17.4 14.11,-31.51 31.51,-31.51z"/>
     <path class="fil3" d="M1478.56 675.92l31.33 0c17.41,0 31.52,14.11 31.52,31.52l0 188.61c0,17.4 -14.11,31.51 -31.51,31.51l-31.34 0c-17.4,0 -31.51,-14.11 -31.51,-31.51l0 -188.61c0,-17.4 14.11,-31.51 31.51,-31.51z"/>
     <path class="fil3" d="M1604.37 833.19l31.34 0c17.4,0 31.51,14.11 31.51,31.52l0 31.33c0,17.4 -14.11,31.51 -31.51,31.51l-31.34 0c-17.4,0 -31.51,-14.11 -31.51,-31.51l-0 -31.33c0,-17.4 14.11,-31.51 31.52,-31.51z"/>
     <path class="fil1 str0" d="M490.06 1263.46l1195.02 0c30.46,0 55.15,24.69 55.15,55.15l0 399.68c0,30.45 -24.69,55.15 -55.15,55.15l-1195.03 0c-30.45,0 -55.15,-24.69 -55.15,-55.15l0 -399.68c0,-30.45 24.7,-55.15 55.15,-55.15z"/>
     <path class="fil2" d="M584.3 1610.56l251.63 0c17.37,-0 31.45,14.08 31.45,31.45l0 0c0,17.37 -14.08,31.45 -31.45,31.45l-251.63 0c-17.37,0 -31.45,-14.09 -31.45,-31.46l0 0c0,-17.37 14.09,-31.46 31.45,-31.46z"/>
     <path class="fil3" d="M1348.25 1340.96l40.32 0c17.4,0 31.52,14.11 31.52,31.51l0 296.45c0,17.4 -14.11,31.51 -31.51,31.51l-40.33 0c-17.4,0 -31.51,-14.11 -31.51,-31.51l0 -296.45c0,-17.4 14.11,-31.51 31.51,-31.51z"/>
     <path class="fil3" d="M1478.56 1453.29l31.33 0c17.41,0 31.52,14.11 31.52,31.51l0 188.61c0,17.4 -14.11,31.51 -31.51,31.51l-31.34 0c-17.4,-0 -31.51,-14.11 -31.51,-31.52l0 -188.61c0,-17.4 14.11,-31.51 31.51,-31.51z"/>
     <path class="fil3" d="M1604.37 1610.56l31.34 0c17.4,-0 31.51,14.11 31.51,31.51l0 31.34c0,17.4 -14.11,31.51 -31.51,31.51l-31.34 0c-17.4,-0 -31.51,-14.11 -31.51,-31.52l-0 -31.33c0,-17.4 14.11,-31.52 31.52,-31.52z"/>
     <path class="fil1 str0" d="M494.55 2040.82l1190.53 0c30.46,0 55.15,24.69 55.15,55.15l0 291.84c0,30.45 -24.69,55.15 -55.15,55.15l-1190.53 0c-30.45,0 -55.15,-24.7 -55.15,-55.15l-0 -291.83c0,-30.46 24.7,-55.15 55.15,-55.15z"/>
     <path class="fil2" d="M584.3 2325.02l251.63 0c17.37,0 31.45,14.09 31.45,31.45l0 0c0,17.37 -14.08,31.45 -31.45,31.45l-251.63 0c-17.37,0 -31.45,-14.09 -31.45,-31.46l0 0c0,-17.37 14.09,-31.46 31.45,-31.46z"/>
     <path class="fil3" d="M1348.25 2055.41l40.32 0c17.4,0 31.52,14.11 31.52,31.51l0 300.94c0,17.4 -14.11,31.51 -31.51,31.51l-40.33 0c-17.4,0 -31.51,-14.11 -31.51,-31.52l0 -300.94c0,-17.4 14.11,-31.51 31.51,-31.51z"/>
     <path class="fil3" d="M1483.05 2167.75l31.34 0c17.4,0 31.51,14.11 31.51,31.51l0 188.61c0,17.4 -14.11,31.51 -31.51,31.51l-31.34 0c-17.4,0 -31.51,-14.11 -31.51,-31.52l0 -188.6c0,-17.41 14.11,-31.52 31.52,-31.52z"/>
     <path class="fil3" d="M1608.87 2325.02l31.34 0c17.4,0 31.52,14.11 31.52,31.51l-0 31.34c0,17.4 -14.11,31.51 -31.51,31.51l-31.34 0c-17.4,0 -31.51,-14.11 -31.51,-31.52l-0 -31.33c0,-17.4 14.11,-31.51 31.52,-31.51z"/>
     <path class="fil4" d="M1986.32 1925.1l134.69 0c17.4,0 31.51,14.11 31.51,31.51l0 94.25c-0,17.4 -14.11,31.51 -31.51,31.51l-134.69 0c-17.4,0 -31.51,-14.11 -31.51,-31.52l0 -94.24c0,-17.4 14.11,-31.51 31.51,-31.51z"/>
     <path class="fil4" d="M2246.94 1830.74l143.67 0c17.4,0 31.51,14.11 31.51,31.51l0 188.61c-0,17.4 -14.11,31.51 -31.52,31.51l-143.67 0c-17.41,0 -31.52,-14.11 -31.52,-31.52l0 -188.61c0,-17.4 14.11,-31.51 31.51,-31.51z"/>
     <path class="fil4" d="M2512.05 1704.93l143.67 0c17.4,-0 31.51,14.11 31.51,31.51l0 314.43c-0,17.4 -14.12,31.51 -31.52,31.51l-143.67 0c-17.4,0 -31.51,-14.11 -31.51,-31.52l0 -314.42c0,-17.41 14.11,-31.52 31.51,-31.52z"/>
     <path class="fil4" d="M2772.67 1579.11l143.67 0c17.4,0 31.51,14.11 31.51,31.51l0 440.24c0,17.4 -14.11,31.51 -31.52,31.51l-143.67 0c-17.41,0 -31.52,-14.11 -31.52,-31.52l0 -440.24c-0,-17.4 14.11,-31.51 31.51,-31.51z"/>
     <path class="fil4" d="M3033.3 1453.29l143.67 0c17.4,0 31.51,14.11 31.51,31.51l0 566.06c-0,17.4 -14.11,31.51 -31.52,31.51l-143.67 0c-17.41,0 -31.52,-14.11 -31.52,-31.52l0 -566.06c0,-17.4 14.11,-31.51 31.51,-31.51z"/>
     <path class="fil4" d="M3302.9 1704.93l143.67 0c17.4,-0 31.51,14.11 31.51,31.51l0 314.43c-0,17.4 -14.11,31.51 -31.52,31.51l-143.67 0c-17.4,0 -31.52,-14.11 -31.52,-31.52l0 -314.42c0,-17.41 14.11,-31.52 31.51,-31.52z"/>
     <path class="fil4" d="M3568.02 1830.74l143.67 0c17.4,0 31.51,14.11 31.51,31.51l0 188.61c-0,17.4 -14.11,31.51 -31.52,31.51l-143.67 0c-17.41,0 -31.52,-14.11 -31.52,-31.52l0 -188.61c0,-17.4 14.11,-31.51 31.51,-31.51z"/>
    </g>
    <polygon class="fil5" points="255.13,2546.37 4145.91,2546.37 4145.91,327.05 255.13,327.05 "/>
    <g>
     <path class="fil6" d="M255.17 258.24c0,-25.64 20.79,-46.43 46.43,-46.43l3786.28 0c32.06,0 58.04,25.98 58.04,58.04l0 58.04 -3890.74 0 0 -69.65z"/>
     <circle class="fil7" cx="322.49" cy="269.84" r="25.54"/>
     <circle class="fil7" cx="401.42" cy="269.84" r="25.54"/>
     <circle class="fil7" cx="484.99" cy="269.84" r="25.54"/>
     <circle class="fil7" cx="1989.29" cy="269.84" r="25.54"/>
     <path class="fil7" d="M2063.64 253.59l357.5 0c8.97,0 16.25,7.28 16.25,16.25l0 0c0,8.97 -7.28,16.25 -16.25,16.25l-357.5 0c-8.97,-0 -16.25,-7.28 -16.25,-16.25l-0 0c0,-8.97 7.28,-16.25 16.25,-16.25z"/>
    </g>
   </g>
   <g>
    <g filter="url(#filter0_d_1_510)">
     <path class="fil1 str0" d="M217.07 518.76l1464.91 0c27.5,0 49.81,22.3 49.81,49.81l0 360.99c0,27.5 -22.31,49.81 -49.81,49.81l-1464.91 0c-27.5,0 -49.81,-22.3 -49.81,-49.81l0 -360.99c0,-27.51 22.3,-49.81 49.81,-49.81z"/>
     <path class="fil2" d="M338.72 832.27l186.69 0c15.69,-0 28.41,12.72 28.41,28.41l0 0c0,15.69 -12.72,28.41 -28.41,28.41l-186.69 0c-15.69,0 -28.41,-12.72 -28.41,-28.41l-0 0c0,-15.69 12.72,-28.41 28.41,-28.41z"/>
     <path class="fil3" d="M1057.13 751.09l28.3 0c15.72,0 28.46,12.75 28.46,28.46l0 125.71c0,15.71 -12.75,28.46 -28.46,28.46l-28.3 0c-15.72,0 -28.46,-12.75 -28.46,-28.46l0 -125.7c0,-15.72 12.74,-28.46 28.46,-28.46z"/>
     <path class="fil3" d="M1170.77 816.03l28.3 0c15.72,0 28.46,12.74 28.46,28.46l0 64.83c0,15.72 -12.75,28.46 -28.46,28.46l-28.3 0c-15.72,-0 -28.46,-12.75 -28.46,-28.46l0 -64.83c0,-15.72 12.74,-28.46 28.46,-28.46z"/>
     <path class="fil3" d="M1284.41 637.46l28.3 0c15.72,0 28.46,12.75 28.46,28.46l0 239.35c0,15.71 -12.74,28.46 -28.46,28.46l-28.3 0c-15.72,0 -28.46,-12.75 -28.46,-28.46l0 -239.34c0,-15.72 12.75,-28.46 28.46,-28.46z"/>
     <path class="fil3" d="M1398.05 702.39l28.3 0c15.72,0 28.46,12.74 28.46,28.46l0 178.47c0,15.72 -12.74,28.46 -28.46,28.46l-28.3 0c-15.72,-0 -28.46,-12.75 -28.46,-28.46l0 -178.47c0,-15.72 12.75,-28.46 28.46,-28.46z"/>
     <path class="fil3" d="M1511.69 816.03l28.3 0c15.72,0 28.46,12.74 28.46,28.46l0 64.83c0,15.72 -12.74,28.46 -28.46,28.46l-28.3 0c-15.72,-0 -28.46,-12.75 -28.46,-28.46l0 -64.83c0,-15.72 12.75,-28.46 28.46,-28.46z"/>
     <path class="fil3" d="M1625.32 751.09l28.3 0c15.72,0 28.46,12.75 28.46,28.46l0 125.71c0,15.71 -12.74,28.46 -28.46,28.46l-28.3 0c-15.72,0 -28.46,-12.75 -28.46,-28.46l-0 -125.7c0,-15.72 12.75,-28.46 28.46,-28.46z"/>
    </g>
   </g>
  </g>
 </g>
</svg>
